<svg width="301" height="77" viewBox="0 0 301 77" fill="none" xmlns="http://www.w3.org/2000/svg">
<path d="M88.5 44.125L90.75 39.875V63H88.5V44.125ZM93 35.5L95.25 31.25V63H93V35.5ZM97.5 27L99.75 22.7188V63H97.5V27ZM82.4062 43.0625L81.125 40.7188L96.625 11.25H99.1562L82.4062 43.0625ZM79.8125 38.1562L78.5 35.7812L91.5 11.25H94.0625L79.8125 38.1562ZM64.75 40.125L67 44.375V63H64.75V40.125ZM60.25 31.5625L62.5 35.8125V63H60.25V31.5625ZM55.75 23L58 27.2812V63H55.75V23ZM73.9375 49.5H71.4062L53.5 15.5312V63H51.25V11.25H53.7812L73.9375 49.5ZM79.0312 49.5H76.4688L56.3438 11.25H58.9062L79.0312 49.5ZM102 15.5312L84.0938 49.5H81.5312L61.4375 11.25H63.9688L82.8438 47.125L101.688 11.25H104.25V63H102V15.5312ZM146.625 40.25V11.25H148.875V40.25C148.875 43.4167 147.625 46.125 145.125 48.375C142.625 50.625 139.625 51.75 136.125 51.75C132.625 51.75 129.625 50.625 127.125 48.375C124.625 46.125 123.375 43.4167 123.375 40.25V11.25H125.625V40.25C125.625 42.7917 126.646 44.9688 128.688 46.7812C130.75 48.5938 133.229 49.5 136.125 49.5C139.021 49.5 141.49 48.5938 143.531 46.7812C145.594 44.9688 146.625 42.7917 146.625 40.25ZM151.125 40.25V11.25H153.375V40.25C153.375 42.4167 152.917 44.4896 152 46.4688C151.083 48.4271 149.854 50.125 148.312 51.5625C146.771 53 144.938 54.1458 142.812 55C140.688 55.8333 138.458 56.25 136.125 56.25C133.792 56.25 131.562 55.8333 129.438 55C127.312 54.1458 125.479 53 123.938 51.5625C122.396 50.125 121.167 48.4271 120.25 46.4688C119.333 44.4896 118.875 42.4167 118.875 40.25V11.25H121.125V40.25C121.125 42.7292 121.792 45.0312 123.125 47.1562C124.479 49.2604 126.302 50.9271 128.594 52.1562C130.906 53.3854 133.417 54 136.125 54C138.833 54 141.333 53.3854 143.625 52.1562C145.938 50.9271 147.76 49.2604 149.094 47.1562C150.448 45.0312 151.125 42.7292 151.125 40.25ZM155.625 40.25V11.25H157.875V40.25C157.875 43.0208 157.292 45.6771 156.125 48.2188C154.979 50.7396 153.438 52.9167 151.5 54.75C149.562 56.5833 147.25 58.0417 144.562 59.125C141.875 60.2083 139.062 60.75 136.125 60.75C133.188 60.75 130.375 60.2083 127.688 59.125C125 58.0417 122.688 56.5833 120.75 54.75C118.812 52.9167 117.26 50.7396 116.094 48.2188C114.948 45.6771 114.375 43.0208 114.375 40.25V11.25H116.625V40.25C116.625 43.5417 117.5 46.5938 119.25 49.4062C121 52.1979 123.365 54.4167 126.344 56.0625C129.344 57.6875 132.604 58.5 136.125 58.5C139.646 58.5 142.896 57.6875 145.875 56.0625C148.875 54.4167 151.25 52.1979 153 49.4062C154.75 46.5938 155.625 43.5417 155.625 40.25ZM160.125 40.25V11.25H162.375V40.25C162.375 44.75 161.198 48.9271 158.844 52.7812C156.49 56.6146 153.292 59.6562 149.25 61.9062C145.229 64.1354 140.854 65.25 136.125 65.25C131.396 65.25 127.01 64.1354 122.969 61.9062C118.948 59.6562 115.76 56.6146 113.406 52.7812C111.052 48.9271 109.875 44.75 109.875 40.25V11.25H112.125V40.25C112.125 43.3125 112.76 46.25 114.031 49.0625C115.302 51.875 117.01 54.3021 119.156 56.3438C121.302 58.3646 123.854 59.9792 126.812 61.1875C129.792 62.3958 132.896 63 136.125 63C139.354 63 142.448 62.3958 145.406 61.1875C148.385 59.9792 150.948 58.3646 153.094 56.3438C155.24 54.3021 156.948 51.875 158.219 49.0625C159.49 46.25 160.125 43.3125 160.125 40.25ZM183.875 63H181.625V11.25H206.531V13.5H183.875V15.75H206.531V18H183.875V20.25H206.531V22.5H183.875V33.75H205.469V36H183.875V38.25H205.469V40.5H183.875V42.75H205.469V45H183.875V63ZM179.375 63H177.125V11.25H179.375V63ZM174.875 63H172.625V11.25H174.875V63ZM170.375 63H168.125V11.25H170.375V63ZM232.781 31.5H229C227.396 31.5 226.24 31.0938 225.531 30.2812C224.823 29.4479 224.469 28.3542 224.469 27C224.469 24 226.708 22.5 231.188 22.5C235.396 22.5 238.562 23.125 240.688 24.375L238.875 25.75C237.417 25.0833 234.854 24.75 231.188 24.75C229.396 24.75 228.188 24.9479 227.562 25.3438C226.958 25.7396 226.656 26.2917 226.656 27C226.656 27.7083 226.823 28.2604 227.156 28.6562C227.49 29.0521 228.104 29.25 229 29.25H232.875C235.688 29.25 238.219 29.7292 240.469 30.6875C242.74 31.6458 244.604 32.9583 246.062 34.625C247.521 36.2708 248.635 38.1771 249.406 40.3438C250.177 42.4896 250.562 44.7917 250.562 47.25C250.562 49.25 250.281 51.1458 249.719 52.9375C249.156 54.7292 248.302 56.375 247.156 57.875C246.031 59.375 244.667 60.6771 243.062 61.7812C241.479 62.8646 239.583 63.7083 237.375 64.3125C235.188 64.9375 232.812 65.25 230.25 65.25C226.229 65.25 222.458 64.6354 218.938 63.4062C215.438 62.1979 212.521 60.5 210.188 58.3125L212 56.9688C214.125 58.8854 216.781 60.375 219.969 61.4375C223.177 62.4792 226.604 63 230.25 63C233.104 63 235.677 62.5938 237.969 61.7812C240.281 60.9479 242.177 59.8125 243.656 58.375C245.156 56.9375 246.302 55.2708 247.094 53.375C247.906 51.4792 248.312 49.4375 248.312 47.25C248.312 44.3542 247.729 41.7396 246.562 39.4062C245.396 37.0521 243.615 35.1458 241.219 33.6875C238.844 32.2292 236.031 31.5 232.781 31.5ZM229 33.75H232.562C236.792 33.75 240.094 35.0417 242.469 37.625C244.865 40.2083 246.062 43.4167 246.062 47.25C246.062 51.1458 244.677 54.375 241.906 56.9375C239.135 59.4792 235.25 60.75 230.25 60.75C226.917 60.75 223.802 60.2917 220.906 59.375C218.01 58.4583 215.604 57.1667 213.688 55.5L215.438 54.0938C217.146 55.4896 219.292 56.5729 221.875 57.3438C224.479 58.1146 227.271 58.5 230.25 58.5C234.646 58.5 238 57.4479 240.312 55.3438C242.646 53.2396 243.812 50.5417 243.812 47.25C243.812 44 242.833 41.3125 240.875 39.1875C238.938 37.0625 236.156 36 232.531 36H229C225.958 36 223.677 35.1667 222.156 33.5C220.635 31.8333 219.875 29.6667 219.875 27C219.875 24.3333 220.812 22.1667 222.688 20.5C224.583 18.8333 227.417 18 231.188 18C233.833 18 236.292 18.3125 238.562 18.9375C240.833 19.5417 242.708 20.4167 244.188 21.5625L242.406 22.9375C239.802 21.1458 236.062 20.25 231.188 20.25C228.042 20.25 225.74 20.875 224.281 22.125C222.844 23.3542 222.125 24.9792 222.125 27C222.125 29.0417 222.656 30.6771 223.719 31.9062C224.802 33.1354 226.562 33.75 229 33.75ZM229 38.25H232.438C235.479 38.25 237.76 39.0938 239.281 40.7812C240.802 42.4688 241.562 44.625 241.562 47.25C241.562 49.9167 240.615 52.0833 238.719 53.75C236.844 55.4167 234.021 56.25 230.25 56.25C227.604 56.25 225.135 55.9479 222.844 55.3438C220.573 54.7188 218.698 53.8333 217.219 52.6875L219 51.3125C221.604 53.1042 225.354 54 230.25 54C233.396 54 235.688 53.3854 237.125 52.1562C238.583 50.9062 239.312 49.2708 239.312 47.25C239.312 45.2292 238.771 43.6042 237.688 42.375C236.604 41.125 234.844 40.5 232.406 40.5H229C224.729 40.5 221.385 39.2292 218.969 36.6875C216.573 34.125 215.375 30.8958 215.375 27C215.375 23.1042 216.76 19.8854 219.531 17.3438C222.302 14.7812 226.188 13.5 231.188 13.5C234.521 13.5 237.625 13.9583 240.5 14.875C243.396 15.7917 245.802 17.0833 247.719 18.75L245.969 20.1562C244.26 18.7604 242.115 17.6771 239.531 16.9062C236.948 16.1354 234.167 15.75 231.188 15.75C226.792 15.75 223.427 16.8021 221.094 18.9062C218.781 21.0104 217.625 23.7083 217.625 27C217.625 30.2708 218.604 32.9688 220.562 35.0938C222.521 37.1979 225.333 38.25 229 38.25ZM229 42.75H232.438C234.042 42.75 235.198 43.1667 235.906 44C236.615 44.8333 236.969 45.9167 236.969 47.25C236.969 50.25 234.729 51.75 230.25 51.75C226.021 51.75 222.844 51.125 220.719 49.875L222.531 48.5C223.99 49.1667 226.562 49.5 230.25 49.5C232.042 49.5 233.24 49.3021 233.844 48.9062C234.469 48.5104 234.781 47.9583 234.781 47.25C234.781 46.5625 234.604 46.0208 234.25 45.625C233.917 45.2083 233.292 45 232.375 45H229C226.125 45 223.521 44.5312 221.188 43.5938C218.875 42.6562 216.969 41.3646 215.469 39.7188C213.99 38.0729 212.854 36.1667 212.062 34C211.271 31.8333 210.875 29.5 210.875 27C210.875 25 211.156 23.1042 211.719 21.3125C212.281 19.5208 213.125 17.875 214.25 16.375C215.396 14.875 216.76 13.5833 218.344 12.5C219.948 11.3958 221.844 10.5417 224.031 9.9375C226.24 9.3125 228.625 9 231.188 9C235.208 9 238.969 9.61458 242.469 10.8438C245.969 12.0521 248.885 13.75 251.219 15.9375L249.406 17.2812C247.281 15.3646 244.625 13.8854 241.438 12.8438C238.25 11.7812 234.833 11.25 231.188 11.25C228.333 11.25 225.75 11.6667 223.438 12.5C221.146 13.3125 219.25 14.4375 217.75 15.875C216.271 17.3125 215.125 18.9792 214.312 20.875C213.521 22.7708 213.125 24.8125 213.125 27C213.125 29.9375 213.719 32.5833 214.906 34.9375C216.094 37.2917 217.906 39.1875 220.344 40.625C222.781 42.0417 225.667 42.75 229 42.75Z" fill="white"/>
<path d="M35.39 26.687L3 48.8435L35.39 71" stroke="white" stroke-width="3"/>
<path d="M39.3401 26.687L6.95001 48.8435L39.3401 71" stroke="white" stroke-width="3"/>
<path d="M40.9201 6.49997L8.53003 28.6565L40.9201 50.813" stroke="white"/>
<path d="M42.5 6.49997L10.11 28.6565L42.5 50.813" stroke="white"/>
<path d="M265.61 50.313L298 28.1565L265.61 6" stroke="white" stroke-width="3"/>
<path d="M261.66 50.313L294.05 28.1565L261.66 6" stroke="white" stroke-width="3"/>
<path d="M260.08 70.5L292.47 48.3435L260.08 26.187" stroke="white"/>
<path d="M258.5 70.5L290.89 48.3435L258.5 26.187" stroke="white"/>
</svg>
