<svg width="531" height="320" viewBox="0 0 531 320" fill="none" xmlns="http://www.w3.org/2000/svg">
<rect width="531" height="327" fill="#3840FF"/>
<path d="M203 176.125L205.25 171.875V195H203V176.125ZM207.5 167.5L209.75 163.25V195H207.5V167.5ZM212 159L214.25 154.719V195H212V159ZM196.906 175.062L195.625 172.719L211.125 143.25H213.656L196.906 175.062ZM194.312 170.156L193 167.781L206 143.25H208.562L194.312 170.156ZM179.25 172.125L181.5 176.375V195H179.25V172.125ZM174.75 163.562L177 167.812V195H174.75V163.562ZM170.25 155L172.5 159.281V195H170.25V155ZM188.438 181.5H185.906L168 147.531V195H165.75V143.25H168.281L188.438 181.5ZM193.531 181.5H190.969L170.844 143.25H173.406L193.531 181.5ZM216.5 147.531L198.594 181.5H196.031L175.938 143.25H178.469L197.344 179.125L216.188 143.25H218.75V195H216.5V147.531ZM261.125 172.25V143.25H263.375V172.25C263.375 175.417 262.125 178.125 259.625 180.375C257.125 182.625 254.125 183.75 250.625 183.75C247.125 183.75 244.125 182.625 241.625 180.375C239.125 178.125 237.875 175.417 237.875 172.25V143.25H240.125V172.25C240.125 174.792 241.146 176.969 243.188 178.781C245.25 180.594 247.729 181.5 250.625 181.5C253.521 181.5 255.99 180.594 258.031 178.781C260.094 176.969 261.125 174.792 261.125 172.25ZM265.625 172.25V143.25H267.875V172.25C267.875 174.417 267.417 176.49 266.5 178.469C265.583 180.427 264.354 182.125 262.812 183.562C261.271 185 259.438 186.146 257.312 187C255.188 187.833 252.958 188.25 250.625 188.25C248.292 188.25 246.062 187.833 243.938 187C241.812 186.146 239.979 185 238.438 183.562C236.896 182.125 235.667 180.427 234.75 178.469C233.833 176.49 233.375 174.417 233.375 172.25V143.25H235.625V172.25C235.625 174.729 236.292 177.031 237.625 179.156C238.979 181.26 240.802 182.927 243.094 184.156C245.406 185.385 247.917 186 250.625 186C253.333 186 255.833 185.385 258.125 184.156C260.438 182.927 262.26 181.26 263.594 179.156C264.948 177.031 265.625 174.729 265.625 172.25ZM270.125 172.25V143.25H272.375V172.25C272.375 175.021 271.792 177.677 270.625 180.219C269.479 182.74 267.938 184.917 266 186.75C264.062 188.583 261.75 190.042 259.062 191.125C256.375 192.208 253.562 192.75 250.625 192.75C247.688 192.75 244.875 192.208 242.188 191.125C239.5 190.042 237.188 188.583 235.25 186.75C233.312 184.917 231.76 182.74 230.594 180.219C229.448 177.677 228.875 175.021 228.875 172.25V143.25H231.125V172.25C231.125 175.542 232 178.594 233.75 181.406C235.5 184.198 237.865 186.417 240.844 188.062C243.844 189.688 247.104 190.5 250.625 190.5C254.146 190.5 257.396 189.688 260.375 188.062C263.375 186.417 265.75 184.198 267.5 181.406C269.25 178.594 270.125 175.542 270.125 172.25ZM274.625 172.25V143.25H276.875V172.25C276.875 176.75 275.698 180.927 273.344 184.781C270.99 188.615 267.792 191.656 263.75 193.906C259.729 196.135 255.354 197.25 250.625 197.25C245.896 197.25 241.51 196.135 237.469 193.906C233.448 191.656 230.26 188.615 227.906 184.781C225.552 180.927 224.375 176.75 224.375 172.25V143.25H226.625V172.25C226.625 175.312 227.26 178.25 228.531 181.062C229.802 183.875 231.51 186.302 233.656 188.344C235.802 190.365 238.354 191.979 241.312 193.188C244.292 194.396 247.396 195 250.625 195C253.854 195 256.948 194.396 259.906 193.188C262.885 191.979 265.448 190.365 267.594 188.344C269.74 186.302 271.448 183.875 272.719 181.062C273.99 178.25 274.625 175.312 274.625 172.25ZM298.375 195H296.125V143.25H321.031V145.5H298.375V147.75H321.031V150H298.375V152.25H321.031V154.5H298.375V165.75H319.969V168H298.375V170.25H319.969V172.5H298.375V174.75H319.969V177H298.375V195ZM293.875 195H291.625V143.25H293.875V195ZM289.375 195H287.125V143.25H289.375V195ZM284.875 195H282.625V143.25H284.875V195ZM347.281 163.5H343.5C341.896 163.5 340.74 163.094 340.031 162.281C339.323 161.448 338.969 160.354 338.969 159C338.969 156 341.208 154.5 345.688 154.5C349.896 154.5 353.062 155.125 355.188 156.375L353.375 157.75C351.917 157.083 349.354 156.75 345.688 156.75C343.896 156.75 342.688 156.948 342.062 157.344C341.458 157.74 341.156 158.292 341.156 159C341.156 159.708 341.323 160.26 341.656 160.656C341.99 161.052 342.604 161.25 343.5 161.25H347.375C350.188 161.25 352.719 161.729 354.969 162.688C357.24 163.646 359.104 164.958 360.562 166.625C362.021 168.271 363.135 170.177 363.906 172.344C364.677 174.49 365.062 176.792 365.062 179.25C365.062 181.25 364.781 183.146 364.219 184.938C363.656 186.729 362.802 188.375 361.656 189.875C360.531 191.375 359.167 192.677 357.562 193.781C355.979 194.865 354.083 195.708 351.875 196.312C349.688 196.938 347.312 197.25 344.75 197.25C340.729 197.25 336.958 196.635 333.438 195.406C329.938 194.198 327.021 192.5 324.688 190.312L326.5 188.969C328.625 190.885 331.281 192.375 334.469 193.438C337.677 194.479 341.104 195 344.75 195C347.604 195 350.177 194.594 352.469 193.781C354.781 192.948 356.677 191.812 358.156 190.375C359.656 188.938 360.802 187.271 361.594 185.375C362.406 183.479 362.812 181.438 362.812 179.25C362.812 176.354 362.229 173.74 361.062 171.406C359.896 169.052 358.115 167.146 355.719 165.688C353.344 164.229 350.531 163.5 347.281 163.5ZM343.5 165.75H347.062C351.292 165.75 354.594 167.042 356.969 169.625C359.365 172.208 360.562 175.417 360.562 179.25C360.562 183.146 359.177 186.375 356.406 188.938C353.635 191.479 349.75 192.75 344.75 192.75C341.417 192.75 338.302 192.292 335.406 191.375C332.51 190.458 330.104 189.167 328.188 187.5L329.938 186.094C331.646 187.49 333.792 188.573 336.375 189.344C338.979 190.115 341.771 190.5 344.75 190.5C349.146 190.5 352.5 189.448 354.812 187.344C357.146 185.24 358.312 182.542 358.312 179.25C358.312 176 357.333 173.312 355.375 171.188C353.438 169.062 350.656 168 347.031 168H343.5C340.458 168 338.177 167.167 336.656 165.5C335.135 163.833 334.375 161.667 334.375 159C334.375 156.333 335.312 154.167 337.188 152.5C339.083 150.833 341.917 150 345.688 150C348.333 150 350.792 150.312 353.062 150.938C355.333 151.542 357.208 152.417 358.688 153.562L356.906 154.938C354.302 153.146 350.562 152.25 345.688 152.25C342.542 152.25 340.24 152.875 338.781 154.125C337.344 155.354 336.625 156.979 336.625 159C336.625 161.042 337.156 162.677 338.219 163.906C339.302 165.135 341.062 165.75 343.5 165.75ZM343.5 170.25H346.938C349.979 170.25 352.26 171.094 353.781 172.781C355.302 174.469 356.062 176.625 356.062 179.25C356.062 181.917 355.115 184.083 353.219 185.75C351.344 187.417 348.521 188.25 344.75 188.25C342.104 188.25 339.635 187.948 337.344 187.344C335.073 186.719 333.198 185.833 331.719 184.688L333.5 183.312C336.104 185.104 339.854 186 344.75 186C347.896 186 350.188 185.385 351.625 184.156C353.083 182.906 353.812 181.271 353.812 179.25C353.812 177.229 353.271 175.604 352.188 174.375C351.104 173.125 349.344 172.5 346.906 172.5H343.5C339.229 172.5 335.885 171.229 333.469 168.688C331.073 166.125 329.875 162.896 329.875 159C329.875 155.104 331.26 151.885 334.031 149.344C336.802 146.781 340.688 145.5 345.688 145.5C349.021 145.5 352.125 145.958 355 146.875C357.896 147.792 360.302 149.083 362.219 150.75L360.469 152.156C358.76 150.76 356.615 149.677 354.031 148.906C351.448 148.135 348.667 147.75 345.688 147.75C341.292 147.75 337.927 148.802 335.594 150.906C333.281 153.01 332.125 155.708 332.125 159C332.125 162.271 333.104 164.969 335.062 167.094C337.021 169.198 339.833 170.25 343.5 170.25ZM343.5 174.75H346.938C348.542 174.75 349.698 175.167 350.406 176C351.115 176.833 351.469 177.917 351.469 179.25C351.469 182.25 349.229 183.75 344.75 183.75C340.521 183.75 337.344 183.125 335.219 181.875L337.031 180.5C338.49 181.167 341.062 181.5 344.75 181.5C346.542 181.5 347.74 181.302 348.344 180.906C348.969 180.51 349.281 179.958 349.281 179.25C349.281 178.562 349.104 178.021 348.75 177.625C348.417 177.208 347.792 177 346.875 177H343.5C340.625 177 338.021 176.531 335.688 175.594C333.375 174.656 331.469 173.365 329.969 171.719C328.49 170.073 327.354 168.167 326.562 166C325.771 163.833 325.375 161.5 325.375 159C325.375 157 325.656 155.104 326.219 153.312C326.781 151.521 327.625 149.875 328.75 148.375C329.896 146.875 331.26 145.583 332.844 144.5C334.448 143.396 336.344 142.542 338.531 141.938C340.74 141.312 343.125 141 345.688 141C349.708 141 353.469 141.615 356.969 142.844C360.469 144.052 363.385 145.75 365.719 147.938L363.906 149.281C361.781 147.365 359.125 145.885 355.938 144.844C352.75 143.781 349.333 143.25 345.688 143.25C342.833 143.25 340.25 143.667 337.938 144.5C335.646 145.312 333.75 146.438 332.25 147.875C330.771 149.312 329.625 150.979 328.812 152.875C328.021 154.771 327.625 156.812 327.625 159C327.625 161.938 328.219 164.583 329.406 166.938C330.594 169.292 332.406 171.188 334.844 172.625C337.281 174.042 340.167 174.75 343.5 174.75Z" fill="white"/>
<path d="M289 123L244 82L199 123" stroke="white" stroke-width="3"/>
<path d="M289 128L244 87L199 128" stroke="white" stroke-width="3"/>
<path d="M330 130L285 89L240 130" stroke="white"/>
<path d="M330 132L285 91L240 132" stroke="white"/>
<path d="M240 219L285 260L330 219" stroke="white" stroke-width="3"/>
<path d="M240 214L285 255L330 214" stroke="white" stroke-width="3"/>
<path d="M199 212L244 253L289 212" stroke="white"/>
<path d="M199 210L244 251L289 210" stroke="white"/>
</svg>
