<svg width="324" height="184" viewBox="0 0 324 184" fill="none" xmlns="http://www.w3.org/2000/svg">
<path d="M100 97.125L102.25 92.875V116H100V97.125ZM104.5 88.5L106.75 84.25V116H104.5V88.5ZM109 80L111.25 75.7188V116H109V80ZM93.9062 96.0625L92.625 93.7188L108.125 64.25H110.656L93.9062 96.0625ZM91.3125 91.1562L90 88.7812L103 64.25H105.562L91.3125 91.1562ZM76.25 93.125L78.5 97.375V116H76.25V93.125ZM71.75 84.5625L74 88.8125V116H71.75V84.5625ZM67.25 76L69.5 80.2812V116H67.25V76ZM85.4375 102.5H82.9062L65 68.5312V116H62.75V64.25H65.2812L85.4375 102.5ZM90.5312 102.5H87.9688L67.8438 64.25H70.4062L90.5312 102.5ZM113.5 68.5312L95.5938 102.5H93.0312L72.9375 64.25H75.4688L94.3438 100.125L113.188 64.25H115.75V116H113.5V68.5312ZM158.125 93.25V64.25H160.375V93.25C160.375 96.4167 159.125 99.125 156.625 101.375C154.125 103.625 151.125 104.75 147.625 104.75C144.125 104.75 141.125 103.625 138.625 101.375C136.125 99.125 134.875 96.4167 134.875 93.25V64.25H137.125V93.25C137.125 95.7917 138.146 97.9688 140.188 99.7812C142.25 101.594 144.729 102.5 147.625 102.5C150.521 102.5 152.99 101.594 155.031 99.7812C157.094 97.9688 158.125 95.7917 158.125 93.25ZM162.625 93.25V64.25H164.875V93.25C164.875 95.4167 164.417 97.4896 163.5 99.4688C162.583 101.427 161.354 103.125 159.812 104.562C158.271 106 156.438 107.146 154.312 108C152.188 108.833 149.958 109.25 147.625 109.25C145.292 109.25 143.062 108.833 140.938 108C138.812 107.146 136.979 106 135.438 104.562C133.896 103.125 132.667 101.427 131.75 99.4688C130.833 97.4896 130.375 95.4167 130.375 93.25V64.25H132.625V93.25C132.625 95.7292 133.292 98.0312 134.625 100.156C135.979 102.26 137.802 103.927 140.094 105.156C142.406 106.385 144.917 107 147.625 107C150.333 107 152.833 106.385 155.125 105.156C157.438 103.927 159.26 102.26 160.594 100.156C161.948 98.0312 162.625 95.7292 162.625 93.25ZM167.125 93.25V64.25H169.375V93.25C169.375 96.0208 168.792 98.6771 167.625 101.219C166.479 103.74 164.938 105.917 163 107.75C161.062 109.583 158.75 111.042 156.062 112.125C153.375 113.208 150.562 113.75 147.625 113.75C144.688 113.75 141.875 113.208 139.188 112.125C136.5 111.042 134.188 109.583 132.25 107.75C130.312 105.917 128.76 103.74 127.594 101.219C126.448 98.6771 125.875 96.0208 125.875 93.25V64.25H128.125V93.25C128.125 96.5417 129 99.5938 130.75 102.406C132.5 105.198 134.865 107.417 137.844 109.062C140.844 110.688 144.104 111.5 147.625 111.5C151.146 111.5 154.396 110.688 157.375 109.062C160.375 107.417 162.75 105.198 164.5 102.406C166.25 99.5938 167.125 96.5417 167.125 93.25ZM171.625 93.25V64.25H173.875V93.25C173.875 97.75 172.698 101.927 170.344 105.781C167.99 109.615 164.792 112.656 160.75 114.906C156.729 117.135 152.354 118.25 147.625 118.25C142.896 118.25 138.51 117.135 134.469 114.906C130.448 112.656 127.26 109.615 124.906 105.781C122.552 101.927 121.375 97.75 121.375 93.25V64.25H123.625V93.25C123.625 96.3125 124.26 99.25 125.531 102.062C126.802 104.875 128.51 107.302 130.656 109.344C132.802 111.365 135.354 112.979 138.312 114.188C141.292 115.396 144.396 116 147.625 116C150.854 116 153.948 115.396 156.906 114.188C159.885 112.979 162.448 111.365 164.594 109.344C166.74 107.302 168.448 104.875 169.719 102.062C170.99 99.25 171.625 96.3125 171.625 93.25ZM195.375 116H193.125V64.25H218.031V66.5H195.375V68.75H218.031V71H195.375V73.25H218.031V75.5H195.375V86.75H216.969V89H195.375V91.25H216.969V93.5H195.375V95.75H216.969V98H195.375V116ZM190.875 116H188.625V64.25H190.875V116ZM186.375 116H184.125V64.25H186.375V116ZM181.875 116H179.625V64.25H181.875V116ZM244.281 84.5H240.5C238.896 84.5 237.74 84.0938 237.031 83.2812C236.323 82.4479 235.969 81.3542 235.969 80C235.969 77 238.208 75.5 242.688 75.5C246.896 75.5 250.062 76.125 252.188 77.375L250.375 78.75C248.917 78.0833 246.354 77.75 242.688 77.75C240.896 77.75 239.688 77.9479 239.062 78.3438C238.458 78.7396 238.156 79.2917 238.156 80C238.156 80.7083 238.323 81.2604 238.656 81.6562C238.99 82.0521 239.604 82.25 240.5 82.25H244.375C247.188 82.25 249.719 82.7292 251.969 83.6875C254.24 84.6458 256.104 85.9583 257.562 87.625C259.021 89.2708 260.135 91.1771 260.906 93.3438C261.677 95.4896 262.062 97.7917 262.062 100.25C262.062 102.25 261.781 104.146 261.219 105.938C260.656 107.729 259.802 109.375 258.656 110.875C257.531 112.375 256.167 113.677 254.562 114.781C252.979 115.865 251.083 116.708 248.875 117.312C246.688 117.938 244.312 118.25 241.75 118.25C237.729 118.25 233.958 117.635 230.438 116.406C226.938 115.198 224.021 113.5 221.688 111.312L223.5 109.969C225.625 111.885 228.281 113.375 231.469 114.438C234.677 115.479 238.104 116 241.75 116C244.604 116 247.177 115.594 249.469 114.781C251.781 113.948 253.677 112.812 255.156 111.375C256.656 109.938 257.802 108.271 258.594 106.375C259.406 104.479 259.812 102.438 259.812 100.25C259.812 97.3542 259.229 94.7396 258.062 92.4062C256.896 90.0521 255.115 88.1458 252.719 86.6875C250.344 85.2292 247.531 84.5 244.281 84.5ZM240.5 86.75H244.062C248.292 86.75 251.594 88.0417 253.969 90.625C256.365 93.2083 257.562 96.4167 257.562 100.25C257.562 104.146 256.177 107.375 253.406 109.938C250.635 112.479 246.75 113.75 241.75 113.75C238.417 113.75 235.302 113.292 232.406 112.375C229.51 111.458 227.104 110.167 225.188 108.5L226.938 107.094C228.646 108.49 230.792 109.573 233.375 110.344C235.979 111.115 238.771 111.5 241.75 111.5C246.146 111.5 249.5 110.448 251.812 108.344C254.146 106.24 255.312 103.542 255.312 100.25C255.312 97 254.333 94.3125 252.375 92.1875C250.438 90.0625 247.656 89 244.031 89H240.5C237.458 89 235.177 88.1667 233.656 86.5C232.135 84.8333 231.375 82.6667 231.375 80C231.375 77.3333 232.312 75.1667 234.188 73.5C236.083 71.8333 238.917 71 242.688 71C245.333 71 247.792 71.3125 250.062 71.9375C252.333 72.5417 254.208 73.4167 255.688 74.5625L253.906 75.9375C251.302 74.1458 247.562 73.25 242.688 73.25C239.542 73.25 237.24 73.875 235.781 75.125C234.344 76.3542 233.625 77.9792 233.625 80C233.625 82.0417 234.156 83.6771 235.219 84.9062C236.302 86.1354 238.062 86.75 240.5 86.75ZM240.5 91.25H243.938C246.979 91.25 249.26 92.0938 250.781 93.7812C252.302 95.4688 253.062 97.625 253.062 100.25C253.062 102.917 252.115 105.083 250.219 106.75C248.344 108.417 245.521 109.25 241.75 109.25C239.104 109.25 236.635 108.948 234.344 108.344C232.073 107.719 230.198 106.833 228.719 105.688L230.5 104.312C233.104 106.104 236.854 107 241.75 107C244.896 107 247.188 106.385 248.625 105.156C250.083 103.906 250.812 102.271 250.812 100.25C250.812 98.2292 250.271 96.6042 249.188 95.375C248.104 94.125 246.344 93.5 243.906 93.5H240.5C236.229 93.5 232.885 92.2292 230.469 89.6875C228.073 87.125 226.875 83.8958 226.875 80C226.875 76.1042 228.26 72.8854 231.031 70.3438C233.802 67.7812 237.688 66.5 242.688 66.5C246.021 66.5 249.125 66.9583 252 67.875C254.896 68.7917 257.302 70.0833 259.219 71.75L257.469 73.1562C255.76 71.7604 253.615 70.6771 251.031 69.9062C248.448 69.1354 245.667 68.75 242.688 68.75C238.292 68.75 234.927 69.8021 232.594 71.9062C230.281 74.0104 229.125 76.7083 229.125 80C229.125 83.2708 230.104 85.9688 232.062 88.0938C234.021 90.1979 236.833 91.25 240.5 91.25ZM240.5 95.75H243.938C245.542 95.75 246.698 96.1667 247.406 97C248.115 97.8333 248.469 98.9167 248.469 100.25C248.469 103.25 246.229 104.75 241.75 104.75C237.521 104.75 234.344 104.125 232.219 102.875L234.031 101.5C235.49 102.167 238.062 102.5 241.75 102.5C243.542 102.5 244.74 102.302 245.344 101.906C245.969 101.51 246.281 100.958 246.281 100.25C246.281 99.5625 246.104 99.0208 245.75 98.625C245.417 98.2083 244.792 98 243.875 98H240.5C237.625 98 235.021 97.5312 232.688 96.5938C230.375 95.6562 228.469 94.3646 226.969 92.7188C225.49 91.0729 224.354 89.1667 223.562 87C222.771 84.8333 222.375 82.5 222.375 80C222.375 78 222.656 76.1042 223.219 74.3125C223.781 72.5208 224.625 70.875 225.75 69.375C226.896 67.875 228.26 66.5833 229.844 65.5C231.448 64.3958 233.344 63.5417 235.531 62.9375C237.74 62.3125 240.125 62 242.688 62C246.708 62 250.469 62.6146 253.969 63.8438C257.469 65.0521 260.385 66.75 262.719 68.9375L260.906 70.2812C258.781 68.3646 256.125 66.8854 252.938 65.8438C249.75 64.7812 246.333 64.25 242.688 64.25C239.833 64.25 237.25 64.6667 234.938 65.5C232.646 66.3125 230.75 67.4375 229.25 68.875C227.771 70.3125 226.625 71.9792 225.812 73.875C225.021 75.7708 224.625 77.8125 224.625 80C224.625 82.9375 225.219 85.5833 226.406 87.9375C227.594 90.2917 229.406 92.1875 231.844 93.625C234.281 95.0417 237.167 95.75 240.5 95.75Z" fill="white"/>
<path d="M186 44L141 3L96 44" stroke="white" stroke-width="3"/>
<path d="M186 49L141 8L96 49" stroke="white" stroke-width="3"/>
<path d="M227 51L182 10L137 51" stroke="white"/>
<path d="M227 53L182 12L137 53" stroke="white"/>
<path d="M137 140L182 181L227 140" stroke="white" stroke-width="3"/>
<path d="M137 135L182 176L227 135" stroke="white" stroke-width="3"/>
<path d="M96 133L141 174L186 133" stroke="white"/>
<path d="M96 131L141 172L186 131" stroke="white"/>
</svg>
